# Blender v2.91.2 OBJ File: 'tank.blend'
# www.blender.org
mtllib tank.mtl
o Cube_Cube.003
v -1.000000 0.000000 0.640109
v -0.777964 0.500000 0.640109
v -1.000000 0.000000 -0.640109
v -0.777964 0.500000 -0.640109
v 0.773367 0.000000 0.640109
v 1.000000 0.500000 0.640109
v 0.773367 0.000000 -0.640109
v 1.000000 0.500000 -0.640109
v -1.162492 0.634209 -0.031178
v -1.162492 0.603631 -0.006083
v -1.162492 0.622278 -0.028805
v -1.162492 0.605405 -0.011931
v -1.162492 0.616888 -0.025923
v -1.162492 0.608286 -0.017322
v -1.162492 0.628127 -0.030579
v -1.162492 0.612164 -0.022046
v -0.222028 0.499220 0.500000
v 0.070420 0.749220 0.500000
v -0.222028 0.499220 -0.500000
v 0.070420 0.749220 -0.500000
v 0.678018 0.499220 0.500000
v 0.777972 0.749220 0.500000
v 0.678018 0.499220 -0.500000
v 0.777972 0.749220 -0.500000
v -1.162492 0.603631 0.006082
v -1.162492 0.603032 -0.000000
v -1.147613 0.634209 -0.037500
v 0.352387 0.634209 -0.037500
v -1.147613 0.626894 -0.036780
v 0.352387 0.626894 -0.036780
v -1.147613 0.619859 -0.034646
v 0.352387 0.619859 -0.034646
v -1.147613 0.613376 -0.031180
v 0.352387 0.613376 -0.031180
v -1.147613 0.607693 -0.026517
v 0.352387 0.607693 -0.026517
v -1.147613 0.603029 -0.020834
v 0.352387 0.603029 -0.020834
v -1.147613 0.599564 -0.014351
v 0.352387 0.599564 -0.014351
v -1.147613 0.597430 -0.007316
v 0.352387 0.597430 -0.007316
v -1.147613 0.596709 -0.000000
v 0.352387 0.596709 -0.000000
v -1.147613 0.597430 0.007316
v 0.352387 0.597430 0.007316
v -1.147613 0.599564 0.014350
v 0.352387 0.599564 0.014350
v -1.147613 0.603029 0.020834
v 0.352387 0.603029 0.020834
v -1.147613 0.607693 0.026516
v 0.352387 0.607693 0.026516
v -1.147613 0.613376 0.031180
v 0.352387 0.613376 0.031180
v -1.147613 0.619859 0.034645
v 0.352387 0.619859 0.034645
v -1.147613 0.626894 0.036779
v 0.352387 0.626894 0.036779
v -1.147613 0.634209 0.037500
v 0.352387 0.634209 0.037500
v -1.147613 0.641525 0.036779
v 0.352387 0.641525 0.036779
v -1.147613 0.648560 0.034645
v 0.352387 0.648560 0.034645
v -1.147613 0.655043 0.031180
v 0.352387 0.655043 0.031180
v -1.147613 0.660726 0.026516
v 0.352387 0.660726 0.026516
v -1.147613 0.665390 0.020834
v 0.352387 0.665390 0.020834
v -1.147613 0.668855 0.014350
v 0.352387 0.668855 0.014350
v -1.147613 0.670989 0.007316
v 0.352387 0.670989 0.007316
v -1.147613 0.671709 -0.000000
v 0.352387 0.671709 -0.000000
v -1.147613 0.670989 -0.007316
v 0.352387 0.670989 -0.007316
v -1.147613 0.668855 -0.014351
v 0.352387 0.668855 -0.014351
v -1.147613 0.665390 -0.020834
v 0.352387 0.665390 -0.020834
v -1.147613 0.660726 -0.026517
v 0.352387 0.660726 -0.026517
v -1.147613 0.655043 -0.031180
v 0.352387 0.655043 -0.031180
v -1.147613 0.648560 -0.034646
v 0.352387 0.648560 -0.034646
v -1.147613 0.641525 -0.036780
v 0.352387 0.641525 -0.036780
v -1.162492 0.605405 0.011931
v -1.162492 0.608286 0.017321
v -1.162492 0.612164 0.022045
v -1.162492 0.616888 0.025923
v -1.162492 0.622278 0.028804
v -1.162492 0.628127 0.030578
v -1.162492 0.634209 0.031177
v -1.162492 0.640292 0.030578
v -1.162492 0.646141 0.028804
v -1.162492 0.651531 0.025923
v -1.162492 0.656255 0.022045
v -1.162492 0.660133 0.017321
v -1.162492 0.663014 0.011931
v -1.162492 0.664788 0.006082
v -1.162492 0.665387 -0.000000
v -1.162492 0.664788 -0.006083
v -1.162492 0.663014 -0.011931
v -1.162492 0.660133 -0.017322
v -1.162492 0.656255 -0.022046
v -1.162492 0.651531 -0.025923
v -1.162492 0.646141 -0.028805
v -1.162492 0.640292 -0.030579
v -0.334417 0.634209 -0.031178
v -0.334417 0.603631 -0.006083
v -0.334417 0.622278 -0.028805
v -0.334417 0.605405 -0.011931
v -0.334417 0.616888 -0.025923
v -0.334417 0.608286 -0.017322
v -0.334417 0.628127 -0.030579
v -0.334417 0.612164 -0.022046
v -0.334417 0.603631 0.006082
v -0.334417 0.603032 -0.000000
v -0.334417 0.605405 0.011931
v -0.334417 0.608286 0.017321
v -0.334417 0.612164 0.022045
v -0.334417 0.616888 0.025923
v -0.334417 0.622278 0.028804
v -0.334417 0.628127 0.030578
v -0.334417 0.634209 0.031177
v -0.334417 0.640292 0.030578
v -0.334417 0.646141 0.028804
v -0.334417 0.651531 0.025923
v -0.334417 0.656255 0.022045
v -0.334417 0.660133 0.017321
v -0.334417 0.663014 0.011931
v -0.334417 0.664788 0.006082
v -0.334417 0.665387 -0.000000
v -0.334417 0.664788 -0.006083
v -0.334417 0.663014 -0.011931
v -0.334417 0.660133 -0.017322
v -0.334417 0.656255 -0.022046
v -0.334417 0.651531 -0.025923
v -0.334417 0.646141 -0.028805
v -0.334417 0.640292 -0.030579
vt 0.375000 0.000000
vt 0.625000 0.000000
vt 0.625000 0.250000
vt 0.375000 0.250000
vt 0.625000 0.500000
vt 0.375000 0.500000
vt 0.625000 0.750000
vt 0.375000 0.750000
vt 0.625000 1.000000
vt 0.375000 1.000000
vt 0.125000 0.500000
vt 0.125000 0.750000
vt 0.875000 0.500000
vt 0.875000 0.750000
vt 0.625000 0.500000
vt 0.593750 0.500000
vt 0.593750 0.500000
vt 0.625000 0.500000
vt 0.375000 0.500000
vt 0.343750 0.500000
vt 0.343750 0.500000
vt 0.375000 0.500000
vt 0.906250 0.500000
vt 0.875000 0.500000
vt 0.875000 0.500000
vt 0.906250 0.500000
vt 0.031250 0.500000
vt 0.000000 0.500000
vt 0.000000 0.500000
vt 0.031250 0.500000
vt 0.968750 0.500000
vt 0.937500 0.500000
vt 0.937500 0.500000
vt 0.968750 0.500000
vt 0.125000 0.500000
vt 0.093750 0.500000
vt 0.093750 0.500000
vt 0.125000 0.500000
vt 0.375000 0.000000
vt 0.625000 0.000000
vt 0.625000 0.250000
vt 0.375000 0.250000
vt 0.625000 0.500000
vt 0.375000 0.500000
vt 0.625000 0.750000
vt 0.375000 0.750000
vt 0.625000 1.000000
vt 0.375000 1.000000
vt 0.125000 0.500000
vt 0.125000 0.750000
vt 0.875000 0.500000
vt 0.875000 0.750000
vt 0.812500 0.500000
vt 0.781250 0.500000
vt 0.781250 0.500000
vt 0.812500 0.500000
vt 1.000000 0.500000
vt 1.000000 1.000000
vt 0.968750 1.000000
vt 0.718750 0.500000
vt 0.687500 0.500000
vt 0.687500 0.500000
vt 0.718750 0.500000
vt 0.937500 1.000000
vt 0.218750 0.500000
vt 0.187500 0.500000
vt 0.187500 0.500000
vt 0.218750 0.500000
vt 0.906250 1.000000
vt 0.906250 0.500000
vt 0.468750 0.500000
vt 0.437500 0.500000
vt 0.437500 0.500000
vt 0.468750 0.500000
vt 0.875000 1.000000
vt 0.875000 0.500000
vt 0.093750 0.500000
vt 0.125000 0.500000
vt 0.750000 0.490000
vt 0.796822 0.485388
vt 0.841844 0.471731
vt 0.883337 0.449553
vt 0.919706 0.419706
vt 0.949553 0.383337
vt 0.971731 0.341844
vt 0.985388 0.296822
vt 0.990000 0.250000
vt 0.985388 0.203178
vt 0.971731 0.158156
vt 0.949553 0.116663
vt 0.919706 0.080294
vt 0.883337 0.050447
vt 0.841844 0.028269
vt 0.796822 0.014612
vt 0.750000 0.010000
vt 0.703178 0.014612
vt 0.658156 0.028269
vt 0.616663 0.050447
vt 0.580294 0.080294
vt 0.550447 0.116663
vt 0.528269 0.158156
vt 0.514611 0.203179
vt 0.510000 0.250000
vt 0.514612 0.296822
vt 0.528269 0.341844
vt 0.550447 0.383337
vt 0.580295 0.419706
vt 0.616663 0.449553
vt 0.658156 0.471731
vt 0.703179 0.485389
vt 0.843750 1.000000
vt 0.843750 0.500000
vt 0.656250 0.500000
vt 0.656250 0.500000
vt 0.468750 0.500000
vt 0.437500 0.500000
vt 0.812500 1.000000
vt 0.812500 0.500000
vt 0.343750 0.500000
vt 0.375000 0.500000
vt 0.218750 0.500000
vt 0.187500 0.500000
vt 0.781250 1.000000
vt 0.781250 0.500000
vt 0.593750 0.500000
vt 0.625000 0.500000
vt 0.750000 1.000000
vt 0.750000 0.500000
vt 0.562500 0.500000
vt 0.531250 0.500000
vt 0.531250 0.500000
vt 0.562500 0.500000
vt 0.718750 1.000000
vt 0.718750 0.500000
vt 0.000000 0.500000
vt 0.031250 0.500000
vt 0.312500 0.500000
vt 0.281250 0.500000
vt 0.281250 0.500000
vt 0.312500 0.500000
vt 0.687500 1.000000
vt 0.687500 0.500000
vt 0.250000 0.500000
vt 0.250000 0.500000
vt 0.281250 0.500000
vt 0.062500 0.500000
vt 0.062500 0.500000
vt 0.656250 1.000000
vt 0.656250 0.500000
vt 0.500000 0.500000
vt 0.500000 0.500000
vt 0.531250 0.500000
vt 0.625000 1.000000
vt 1.000000 0.500000
vt 0.968750 0.500000
vt 1.000000 0.500000
vt 0.593750 1.000000
vt 0.750000 0.500000
vt 0.750000 0.500000
vt 0.406250 0.500000
vt 0.406250 0.500000
vt 0.562500 1.000000
vt 0.156250 0.500000
vt 0.156250 0.500000
vt 0.156250 0.500000
vt 0.531250 1.000000
vt 0.406250 0.500000
vt 0.500000 1.000000
vt 0.500000 0.500000
vt 0.468750 1.000000
vt 0.062500 0.500000
vt 0.250000 0.500000
vt 0.437500 1.000000
vt 0.312500 0.500000
vt 0.843750 0.500000
vt 0.406250 1.000000
vt 0.937500 0.500000
vt 0.375000 1.000000
vt 0.562500 0.500000
vt 0.343750 1.000000
vt 0.312500 1.000000
vt 0.281250 1.000000
vt 0.843750 0.500000
vt 0.250000 1.000000
vt 0.218750 1.000000
vt 0.187500 1.000000
vt 0.156250 1.000000
vt 0.125000 1.000000
vt 0.093750 1.000000
vt 0.062500 1.000000
vt 0.296822 0.485388
vt 0.250000 0.490000
vt 0.203179 0.485389
vt 0.158156 0.471731
vt 0.116663 0.449553
vt 0.080295 0.419706
vt 0.050447 0.383337
vt 0.028269 0.341844
vt 0.014612 0.296822
vt 0.010000 0.250000
vt 0.014611 0.203179
vt 0.028269 0.158156
vt 0.050447 0.116663
vt 0.080294 0.080294
vt 0.116663 0.050447
vt 0.158156 0.028269
vt 0.203178 0.014612
vt 0.250000 0.010000
vt 0.296822 0.014612
vt 0.341844 0.028269
vt 0.383337 0.050447
vt 0.419706 0.080294
vt 0.449553 0.116663
vt 0.471731 0.158156
vt 0.485388 0.203178
vt 0.490000 0.250000
vt 0.485388 0.296822
vt 0.471731 0.341844
vt 0.449553 0.383337
vt 0.419706 0.419706
vt 0.383337 0.449553
vt 0.341844 0.471731
vt 0.031250 1.000000
vt 0.000000 1.000000
vn -0.9139 0.4059 0.0000
vn 0.0000 0.0000 -1.0000
vn 0.9108 -0.4128 0.0000
vn 0.0000 0.0000 1.0000
vn 0.0000 -1.0000 0.0000
vn 0.0000 1.0000 0.0000
vn -0.3895 -0.5843 0.7120
vn -0.3895 0.7120 0.5843
vn 0.0000 0.6344 0.7730
vn -0.3895 0.0903 -0.9166
vn -0.3895 -0.2674 -0.8814
vn -0.3895 0.5843 -0.7120
vn -0.6498 0.7601 0.0000
vn 0.9285 -0.3712 0.0000
vn 0.0000 0.9569 0.2903
vn 0.0000 -0.0980 -0.9952
vn 0.0000 0.9569 -0.2903
vn 0.0000 -0.2903 -0.9569
vn 0.0000 -0.9569 0.2903
vn 0.0000 -0.4714 -0.8819
vn 0.0000 -0.6344 -0.7730
vn 0.0000 -0.6344 0.7730
vn -1.0000 0.0000 0.0000
vn 0.0000 -0.7730 -0.6344
vn 0.0000 0.8819 -0.4714
vn -0.3895 0.2674 0.8814
vn 0.0000 -0.8819 -0.4714
vn -0.3895 0.8814 -0.2674
vn 0.0000 -0.9569 -0.2903
vn 0.0000 0.6344 -0.7730
vn -0.3895 -0.8814 -0.2674
vn 0.0000 -0.9952 -0.0980
vn 0.0000 0.7730 -0.6344
vn -0.3895 -0.2674 0.8814
vn 0.0000 -0.9952 0.0980
vn 0.0000 -0.0980 0.9952
vn -0.3895 0.8814 0.2674
vn -0.3895 0.2674 -0.8814
vn 0.0000 -0.8819 0.4714
vn 0.0000 0.0980 -0.9952
vn -0.3895 -0.5843 -0.7120
vn 0.0000 -0.7730 0.6344
vn 0.0000 0.0980 0.9952
vn -0.3895 -0.7120 0.5843
vn 0.0000 0.9952 0.0980
vn -0.3895 0.5843 0.7120
vn 0.0000 -0.4714 0.8819
vn -0.3895 0.7120 -0.5843
vn 0.0000 -0.2903 0.9569
vn -0.3895 -0.9166 0.0903
vn 0.0000 0.9952 -0.0980
vn -0.3895 0.0903 0.9166
vn -0.3895 0.9166 -0.0903
vn 0.0000 0.2903 0.9569
vn -0.3895 -0.8123 -0.4342
vn 0.0000 0.4714 0.8819
vn -0.3895 -0.0903 -0.9166
vn 0.0000 0.4714 -0.8819
vn -0.3895 -0.4342 0.8123
vn 0.0000 0.7730 0.6344
vn -0.3895 0.8123 0.4342
vn 0.0000 0.8819 0.4714
vn -0.3895 0.4342 -0.8123
vn -0.3895 -0.4342 -0.8123
vn -0.3895 -0.8123 0.4342
vn -0.3895 0.4342 0.8123
vn -0.3895 0.8123 -0.4342
vn -0.3895 -0.9166 -0.0903
vn -0.3895 -0.0903 0.9166
vn -0.3895 0.9166 0.0903
vn 1.0000 0.0000 0.0000
vn -0.3895 -0.7120 -0.5843
vn 0.0000 0.2903 -0.9569
vn -0.3895 -0.8814 0.2674
usemtl None
s off
f 1/1/1 2/2/1 4/3/1 3/4/1
f 3/4/2 4/3/2 8/5/2 7/6/2
f 7/6/3 8/5/3 6/7/3 5/8/3
f 5/8/4 6/7/4 2/9/4 1/10/4
f 3/11/5 7/6/5 5/8/5 1/12/5
f 8/5/6 4/13/6 2/14/6 6/7/6
f 51/15/7 53/16/7 94/17/7 93/18/7
f 67/19/8 69/20/8 102/21/8 101/22/8
f 13/23/9 16/24/9 120/25/9 117/26/9
f 89/27/10 27/28/10 9/29/10 112/30/10
f 29/31/11 31/32/11 11/33/11 15/34/11
f 83/35/12 85/36/12 110/37/12 109/38/12
f 17/39/13 18/40/13 20/41/13 19/42/13
f 19/42/2 20/41/2 24/43/2 23/44/2
f 23/44/14 24/43/14 22/45/14 21/46/14
f 21/46/4 22/45/4 18/47/4 17/48/4
f 19/49/5 23/44/5 21/46/5 17/50/5
f 24/43/6 20/51/6 18/52/6 22/45/6
f 12/53/15 10/54/15 114/55/15 116/56/15
f 27/57/16 28/58/16 30/59/16 29/31/16
f 25/60/17 91/61/17 123/62/17 121/63/17
f 29/31/18 30/59/18 32/64/18 31/32/18
f 106/65/19 107/66/19 139/67/19 138/68/19
f 31/32/20 32/64/20 34/69/20 33/70/20
f 98/71/18 99/72/18 131/73/18 130/74/18
f 33/70/21 34/69/21 36/75/21 35/76/21
f 109/38/22 110/37/22 142/77/22 141/78/22
f 113/79/23 119/80/23 115/81/23 117/82/23 120/83/23 118/84/23 116/85/23 114/86/23 122/87/23 121/88/23 123/89/23 124/90/23 125/91/23 126/92/23 127/93/23 128/94/23 129/95/23 130/96/23 131/97/23 132/98/23 133/99/23 134/100/23 135/101/23 136/102/23 137/103/23 138/104/23 139/105/23 140/106/23 141/107/23 142/108/23 143/109/23 144/110/23
f 35/76/24 36/75/24 38/111/24 37/112/24
f 91/61/25 92/113/25 124/114/25 123/62/25
f 61/115/26 63/116/26 99/72/26 98/71/26
f 37/112/27 38/111/27 40/117/27 39/118/27
f 101/22/24 102/21/24 134/119/24 133/120/24
f 77/121/28 79/122/28 107/66/28 106/65/28
f 39/118/29 40/117/29 42/123/29 41/124/29
f 93/18/30 94/17/30 126/125/30 125/126/30
f 39/118/31 41/124/31 10/54/31 12/53/31
f 41/124/32 42/123/32 44/127/32 43/128/32
f 92/113/33 93/18/33 125/126/33 124/114/33
f 55/129/34 57/130/34 96/131/34 95/132/34
f 43/128/35 44/127/35 46/133/35 45/134/35
f 112/30/36 9/29/36 113/135/36 144/136/36
f 71/137/37 73/138/37 104/139/37 103/140/37
f 45/134/19 46/133/19 48/141/19 47/142/19
f 104/139/32 105/143/32 137/144/32 136/145/32
f 87/146/38 89/27/38 112/30/38 111/147/38
f 47/142/39 48/141/39 50/148/39 49/149/39
f 96/131/40 97/150/40 129/151/40 128/152/40
f 33/70/41 35/76/41 16/24/41 13/23/41
f 49/149/42 50/148/42 52/153/42 51/15/42
f 9/154/43 15/34/43 119/155/43 113/156/43
f 49/149/44 51/15/44 93/18/44 92/113/44
f 51/15/22 52/153/22 54/157/22 53/16/22
f 10/54/45 26/158/45 122/159/45 114/55/45
f 65/160/46 67/19/46 101/22/46 100/161/46
f 53/16/47 54/157/47 56/162/47 55/129/47
f 107/66/39 108/163/39 140/164/39 139/67/39
f 81/165/48 83/35/48 109/38/48 108/163/48
f 55/129/49 56/162/49 58/166/49 57/130/49
f 99/72/20 100/161/20 132/167/20 131/73/20
f 43/128/50 45/134/50 25/60/50 26/158/50
f 57/130/36 58/166/36 60/168/36 59/169/36
f 26/158/51 25/60/51 121/63/51 122/159/51
f 59/169/52 61/115/52 98/71/52 97/150/52
f 59/169/43 60/168/43 62/170/43 61/115/43
f 110/37/47 111/147/47 143/171/47 142/77/47
f 75/172/53 77/121/53 106/65/53 105/143/53
f 61/115/54 62/170/54 64/173/54 63/116/54
f 102/21/27 103/140/27 135/174/27 134/119/27
f 37/112/55 39/118/55 12/53/55 14/175/55
f 63/116/56 64/173/56 66/176/56 65/160/56
f 15/34/54 11/33/54 115/177/54 119/155/54
f 27/57/57 29/31/57 15/34/57 9/154/57
f 65/160/9 66/176/9 68/178/9 67/19/9
f 94/17/58 95/132/58 127/179/58 126/125/58
f 53/16/59 55/129/59 95/132/59 94/17/59
f 67/19/60 68/178/60 70/180/60 69/20/60
f 105/143/35 106/65/35 138/68/35 137/144/35
f 69/20/61 71/137/61 103/140/61 102/21/61
f 69/20/62 70/180/62 72/181/62 71/137/62
f 97/150/16 98/71/16 130/74/16 129/151/16
f 85/36/63 87/146/63 111/147/63 110/37/63
f 71/137/15 72/181/15 74/182/15 73/138/15
f 14/175/62 12/53/62 116/56/62 118/183/62
f 31/32/64 33/70/64 13/23/64 11/33/64
f 73/138/45 74/182/45 76/184/45 75/172/45
f 108/163/42 109/38/42 141/78/42 140/164/42
f 47/142/65 49/149/65 92/113/65 91/61/65
f 75/172/51 76/184/51 78/185/51 77/121/51
f 16/24/60 14/175/60 118/183/60 120/25/60
f 63/116/66 65/160/66 100/161/66 99/72/66
f 77/121/17 78/185/17 80/186/17 79/122/17
f 100/161/21 101/22/21 133/120/21 132/167/21
f 79/122/67 81/165/67 108/163/67 107/66/67
f 79/122/25 80/186/25 82/187/25 81/165/25
f 11/33/56 13/23/56 117/26/56 115/177/56
f 41/124/68 43/128/68 26/158/68 10/54/68
f 81/165/33 82/187/33 84/188/33 83/35/33
f 111/147/49 112/30/49 144/136/49 143/171/49
f 57/130/69 59/169/69 97/150/69 96/131/69
f 83/35/30 84/188/30 86/189/30 85/36/30
f 103/140/29 104/139/29 136/145/29 135/174/29
f 73/138/70 75/172/70 105/143/70 104/139/70
f 85/36/58 86/189/58 88/190/58 87/146/58
f 30/191/71 28/192/71 90/193/71 88/194/71 86/195/71 84/196/71 82/197/71 80/198/71 78/199/71 76/200/71 74/201/71 72/202/71 70/203/71 68/204/71 66/205/71 64/206/71 62/207/71 60/208/71 58/209/71 56/210/71 54/211/71 52/212/71 50/213/71 48/214/71 46/215/71 44/216/71 42/217/71 40/218/71 38/219/71 36/220/71 34/221/71 32/222/71
f 35/76/72 37/112/72 14/175/72 16/24/72
f 87/146/73 88/190/73 90/223/73 89/27/73
f 95/132/73 96/131/73 128/152/73 127/179/73
f 89/27/40 90/223/40 28/224/40 27/28/40
f 45/134/74 47/142/74 91/61/74 25/60/74
