# Blender v2.91.2 OBJ File: 'tankbullet.blend'
# www.blender.org
mtllib tankbullet.mtl
o Cylinder
v 0.000000 0.100000 -0.200000
v 0.000000 0.100000 0.200000
v 0.019509 0.098079 -0.200000
v 0.019509 0.098079 0.200000
v 0.038268 0.092388 -0.200000
v 0.038268 0.092388 0.200000
v 0.055557 0.083147 -0.200000
v 0.055557 0.083147 0.200000
v 0.070711 0.070711 -0.200000
v 0.070711 0.070711 0.200000
v 0.083147 0.055557 -0.200000
v 0.083147 0.055557 0.200000
v 0.092388 0.038268 -0.200000
v 0.092388 0.038268 0.200000
v 0.098079 0.019509 -0.200000
v 0.098079 0.019509 0.200000
v 0.100000 0.000000 -0.200000
v 0.100000 -0.000000 0.200000
v 0.098079 -0.019509 -0.200000
v 0.098079 -0.019509 0.200000
v 0.092388 -0.038268 -0.200000
v 0.092388 -0.038268 0.200000
v 0.083147 -0.055557 -0.200000
v 0.083147 -0.055557 0.200000
v 0.070711 -0.070711 -0.200000
v 0.070711 -0.070711 0.200000
v 0.055557 -0.083147 -0.200000
v 0.055557 -0.083147 0.200000
v 0.038268 -0.092388 -0.200000
v 0.038268 -0.092388 0.200000
v 0.019509 -0.098079 -0.200000
v 0.019509 -0.098079 0.200000
v -0.000000 -0.100000 -0.200000
v -0.000000 -0.100000 0.200000
v -0.019509 -0.098079 -0.200000
v -0.019509 -0.098079 0.200000
v -0.038268 -0.092388 -0.200000
v -0.038268 -0.092388 0.200000
v -0.055557 -0.083147 -0.200000
v -0.055557 -0.083147 0.200000
v -0.070711 -0.070711 -0.200000
v -0.070711 -0.070711 0.200000
v -0.083147 -0.055557 -0.200000
v -0.083147 -0.055557 0.200000
v -0.092388 -0.038268 -0.200000
v -0.092388 -0.038268 0.200000
v -0.098079 -0.019509 -0.200000
v -0.098079 -0.019509 0.200000
v -0.100000 0.000000 -0.200000
v -0.100000 0.000000 0.200000
v -0.098079 0.019509 -0.200000
v -0.098079 0.019509 0.200000
v -0.092388 0.038268 -0.200000
v -0.092388 0.038268 0.200000
v -0.083147 0.055557 -0.200000
v -0.083147 0.055557 0.200000
v -0.070711 0.070711 -0.200000
v -0.070711 0.070711 0.200000
v -0.055557 0.083147 -0.200000
v -0.055557 0.083147 0.200000
v -0.038268 0.092388 -0.200000
v -0.038268 0.092388 0.200000
v -0.019509 0.098079 -0.200000
v -0.019509 0.098079 0.200000
v 0.000000 0.048753 0.335047
v 0.009511 0.047816 0.335047
v 0.018657 0.045041 0.335047
v 0.027085 0.040536 0.335047
v 0.034473 0.034473 0.335047
v 0.040536 0.027085 0.335047
v 0.045041 0.018657 0.335047
v 0.047816 0.009511 0.335047
v 0.048753 0.000000 0.335047
v 0.047816 -0.009511 0.335047
v 0.045041 -0.018657 0.335047
v 0.040536 -0.027085 0.335047
v 0.034473 -0.034473 0.335047
v 0.027085 -0.040536 0.335047
v 0.018657 -0.045041 0.335047
v 0.009511 -0.047816 0.335047
v -0.000000 -0.048753 0.335047
v -0.009511 -0.047816 0.335047
v -0.018657 -0.045041 0.335047
v -0.027085 -0.040536 0.335047
v -0.034473 -0.034473 0.335047
v -0.040536 -0.027085 0.335047
v -0.045041 -0.018657 0.335047
v -0.047816 -0.009511 0.335047
v -0.048753 0.000000 0.335047
v -0.047816 0.009511 0.335047
v -0.045041 0.018657 0.335047
v -0.040536 0.027086 0.335047
v -0.034473 0.034473 0.335047
v -0.027085 0.040536 0.335047
v -0.018657 0.045041 0.335047
v -0.009511 0.047816 0.335047
v -0.000000 0.000000 0.523875
vt 1.000000 0.500000
vt 1.000000 1.000000
vt 0.968750 1.000000
vt 0.968750 0.500000
vt 0.937500 1.000000
vt 0.937500 0.500000
vt 0.906250 1.000000
vt 0.906250 0.500000
vt 0.875000 1.000000
vt 0.875000 0.500000
vt 0.843750 1.000000
vt 0.843750 0.500000
vt 0.812500 1.000000
vt 0.812500 0.500000
vt 0.781250 1.000000
vt 0.781250 0.500000
vt 0.750000 1.000000
vt 0.750000 0.500000
vt 0.718750 1.000000
vt 0.718750 0.500000
vt 0.687500 1.000000
vt 0.687500 0.500000
vt 0.656250 1.000000
vt 0.656250 0.500000
vt 0.625000 1.000000
vt 0.625000 0.500000
vt 0.593750 1.000000
vt 0.593750 0.500000
vt 0.562500 1.000000
vt 0.562500 0.500000
vt 0.531250 1.000000
vt 0.531250 0.500000
vt 0.500000 1.000000
vt 0.500000 0.500000
vt 0.468750 1.000000
vt 0.468750 0.500000
vt 0.437500 1.000000
vt 0.437500 0.500000
vt 0.406250 1.000000
vt 0.406250 0.500000
vt 0.375000 1.000000
vt 0.375000 0.500000
vt 0.343750 1.000000
vt 0.343750 0.500000
vt 0.312500 1.000000
vt 0.312500 0.500000
vt 0.281250 1.000000
vt 0.281250 0.500000
vt 0.250000 1.000000
vt 0.250000 0.500000
vt 0.218750 1.000000
vt 0.218750 0.500000
vt 0.187500 1.000000
vt 0.187500 0.500000
vt 0.156250 1.000000
vt 0.156250 0.500000
vt 0.125000 1.000000
vt 0.125000 0.500000
vt 0.093750 1.000000
vt 0.093750 0.500000
vt 0.062500 1.000000
vt 0.062500 0.500000
vt 0.187500 1.000000
vt 0.156250 1.000000
vt 0.031250 1.000000
vt 0.031250 0.500000
vt 0.000000 1.000000
vt 0.000000 0.500000
vt 0.750000 0.490000
vt 0.796822 0.485388
vt 0.841844 0.471731
vt 0.883337 0.449553
vt 0.919706 0.419706
vt 0.949553 0.383337
vt 0.971731 0.341844
vt 0.985388 0.296822
vt 0.990000 0.250000
vt 0.985388 0.203178
vt 0.971731 0.158156
vt 0.949553 0.116663
vt 0.919706 0.080294
vt 0.883337 0.050447
vt 0.841844 0.028269
vt 0.796822 0.014612
vt 0.750000 0.010000
vt 0.703178 0.014612
vt 0.658156 0.028269
vt 0.616663 0.050447
vt 0.580294 0.080294
vt 0.550447 0.116663
vt 0.528269 0.158156
vt 0.514611 0.203179
vt 0.510000 0.250000
vt 0.514612 0.296822
vt 0.528269 0.341844
vt 0.550447 0.383337
vt 0.580295 0.419706
vt 0.616663 0.449553
vt 0.658156 0.471731
vt 0.703179 0.485389
vt 0.625000 1.000000
vt 0.656250 1.000000
vt 0.625000 1.000000
vt 0.875000 1.000000
vt 0.843750 1.000000
vt 0.593750 1.000000
vt 0.562500 1.000000
vt 0.312500 1.000000
vt 0.281250 1.000000
vt 1.000000 1.000000
vt 0.968750 1.000000
vt 0.031250 1.000000
vt 0.000000 1.000000
vt 0.718750 1.000000
vt 0.687500 1.000000
vt 0.437500 1.000000
vt 0.406250 1.000000
vt 0.125000 1.000000
vt 0.812500 1.000000
vt 0.531250 1.000000
vt 0.250000 1.000000
vt 0.937500 1.000000
vt 0.375000 1.000000
vt 0.093750 1.000000
vt 0.781250 1.000000
vt 0.500000 1.000000
vt 0.218750 1.000000
vt 0.906250 1.000000
vt 0.343750 1.000000
vt 0.062500 1.000000
vt 0.750000 1.000000
vt 0.468750 1.000000
vt 0.187500 1.000000
vt 0.593750 1.000000
vt 0.156250 1.000000
vt 0.562500 1.000000
vt 0.968750 1.000000
vt 0.125000 1.000000
vt 0.531250 1.000000
vt 0.937500 1.000000
vt 0.093750 1.000000
vt 0.500000 1.000000
vt 0.906250 1.000000
vt 0.062500 1.000000
vt 0.468750 1.000000
vt 0.875000 1.000000
vt 0.031250 1.000000
vt 0.437500 1.000000
vt 0.843750 1.000000
vt 0.000000 1.000000
vt 0.406250 1.000000
vt 0.812500 1.000000
vt 0.375000 1.000000
vt 0.781250 1.000000
vt 0.343750 1.000000
vt 0.750000 1.000000
vt 0.312500 1.000000
vt 0.718750 1.000000
vt 0.281250 1.000000
vt 0.687500 1.000000
vt 0.250000 1.000000
vt 0.656250 1.000000
vt 0.218750 1.000000
vn 0.0980 0.9952 0.0000
vn 0.2903 0.9569 0.0000
vn 0.4714 0.8819 0.0000
vn 0.6344 0.7730 0.0000
vn 0.7730 0.6344 0.0000
vn 0.8819 0.4714 0.0000
vn 0.9569 0.2903 0.0000
vn 0.9952 0.0980 0.0000
vn 0.9952 -0.0980 -0.0000
vn 0.9569 -0.2903 -0.0000
vn 0.8819 -0.4714 -0.0000
vn 0.7730 -0.6344 -0.0000
vn 0.6344 -0.7730 -0.0000
vn 0.4714 -0.8819 -0.0000
vn 0.2903 -0.9569 -0.0000
vn 0.0980 -0.9952 -0.0000
vn -0.0980 -0.9952 -0.0000
vn -0.2903 -0.9569 -0.0000
vn -0.4714 -0.8819 -0.0000
vn -0.6344 -0.7730 -0.0000
vn -0.7730 -0.6344 -0.0000
vn -0.8819 -0.4714 -0.0000
vn -0.9569 -0.2903 -0.0000
vn -0.9952 -0.0980 -0.0000
vn -0.9952 0.0980 0.0000
vn -0.9569 0.2903 0.0000
vn -0.8819 0.4714 0.0000
vn -0.7730 0.6344 0.0000
vn -0.6344 0.7730 0.0000
vn -0.4714 0.8819 0.0000
vn -0.8250 0.4410 0.3533
vn -0.2903 0.9569 0.0000
vn -0.0980 0.9952 0.0000
vn 0.0000 0.0000 -1.0000
vn 0.7487 -0.6144 0.2489
vn 0.7232 0.5935 0.3533
vn 0.4410 -0.8250 0.3533
vn -0.8952 -0.2716 0.3533
vn 0.0917 0.9310 0.3533
vn -0.0917 0.9310 0.3533
vn 0.8952 -0.2716 0.3533
vn -0.4410 -0.8250 0.3533
vn -0.7232 0.5935 0.3533
vn 0.8250 0.4410 0.3533
vn 0.2716 -0.8952 0.3533
vn -0.9310 -0.0917 0.3533
vn 0.2716 0.8952 0.3533
vn 0.8250 -0.4410 0.3533
vn -0.5935 -0.7232 0.3533
vn -0.5935 0.7232 0.3533
vn 0.8952 0.2716 0.3533
vn 0.0917 -0.9310 0.3533
vn -0.9310 0.0917 0.3533
vn 0.4410 0.8250 0.3533
vn 0.7232 -0.5935 0.3533
vn -0.7232 -0.5935 0.3533
vn -0.4410 0.8250 0.3533
vn 0.9310 0.0917 0.3533
vn -0.0917 -0.9310 0.3533
vn -0.8952 0.2716 0.3533
vn 0.5935 0.7232 0.3533
vn 0.5935 -0.7232 0.3533
vn -0.8250 -0.4410 0.3533
vn -0.2716 0.8952 0.3533
vn 0.9310 -0.0917 0.3533
vn -0.2716 -0.8952 0.3533
vn -0.9268 0.2812 0.2489
vn 0.6144 -0.7487 0.2489
vn -0.8542 0.4566 0.2489
vn 0.4566 -0.8542 0.2489
vn 0.0949 0.9639 0.2489
vn -0.7487 0.6144 0.2489
vn 0.2812 -0.9268 0.2489
vn 0.2812 0.9268 0.2489
vn -0.6144 0.7487 0.2489
vn 0.0949 -0.9639 0.2489
vn 0.4566 0.8542 0.2489
vn -0.4566 0.8542 0.2489
vn -0.0949 -0.9639 0.2489
vn 0.6144 0.7487 0.2489
vn -0.2812 0.9268 0.2489
vn -0.2812 -0.9268 0.2489
vn 0.7487 0.6144 0.2489
vn -0.0949 0.9639 0.2489
vn -0.4566 -0.8542 0.2489
vn 0.8542 0.4566 0.2489
vn -0.6144 -0.7487 0.2489
vn 0.9268 0.2812 0.2489
vn -0.7487 -0.6144 0.2489
vn 0.9639 0.0949 0.2489
vn -0.8542 -0.4566 0.2489
vn 0.9639 -0.0949 0.2489
vn -0.9268 -0.2812 0.2489
vn 0.9268 -0.2812 0.2489
vn -0.9639 -0.0949 0.2489
vn 0.8542 -0.4566 0.2489
vn -0.9639 0.0949 0.2489
usemtl None
s off
f 1/1/1 2/2/1 4/3/1 3/4/1
f 3/4/2 4/3/2 6/5/2 5/6/2
f 5/6/3 6/5/3 8/7/3 7/8/3
f 7/8/4 8/7/4 10/9/4 9/10/4
f 9/10/5 10/9/5 12/11/5 11/12/5
f 11/12/6 12/11/6 14/13/6 13/14/6
f 13/14/7 14/13/7 16/15/7 15/16/7
f 15/16/8 16/15/8 18/17/8 17/18/8
f 17/18/9 18/17/9 20/19/9 19/20/9
f 19/20/10 20/19/10 22/21/10 21/22/10
f 21/22/11 22/21/11 24/23/11 23/24/11
f 23/24/12 24/23/12 26/25/12 25/26/12
f 25/26/13 26/25/13 28/27/13 27/28/13
f 27/28/14 28/27/14 30/29/14 29/30/14
f 29/30/15 30/29/15 32/31/15 31/32/15
f 31/32/16 32/31/16 34/33/16 33/34/16
f 33/34/17 34/33/17 36/35/17 35/36/17
f 35/36/18 36/35/18 38/37/18 37/38/18
f 37/38/19 38/37/19 40/39/19 39/40/19
f 39/40/20 40/39/20 42/41/20 41/42/20
f 41/42/21 42/41/21 44/43/21 43/44/21
f 43/44/22 44/43/22 46/45/22 45/46/22
f 45/46/23 46/45/23 48/47/23 47/48/23
f 47/48/24 48/47/24 50/49/24 49/50/24
f 49/50/25 50/49/25 52/51/25 51/52/25
f 51/52/26 52/51/26 54/53/26 53/54/26
f 53/54/27 54/53/27 56/55/27 55/56/27
f 55/56/28 56/55/28 58/57/28 57/58/28
f 57/58/29 58/57/29 60/59/29 59/60/29
f 59/60/30 60/59/30 62/61/30 61/62/30
f 56/55/31 54/53/31 91/63/31 92/64/31
f 61/62/32 62/61/32 64/65/32 63/66/32
f 63/66/33 64/65/33 2/67/33 1/68/33
f 1/69/34 3/70/34 5/71/34 7/72/34 9/73/34 11/74/34 13/75/34 15/76/34 17/77/34 19/78/34 21/79/34 23/80/34 25/81/34 27/82/34 29/83/34 31/84/34 33/85/34 35/86/34 37/87/34 39/88/34 41/89/34 43/90/34 45/91/34 47/92/34 49/93/34 51/94/34 53/95/34 55/96/34 57/97/34 59/98/34 61/99/34 63/100/34
f 77/101/35 76/102/35 97/103/35
f 12/11/36 10/9/36 69/104/36 70/105/36
f 30/29/37 28/27/37 78/106/37 79/107/37
f 48/47/38 46/45/38 87/108/38 88/109/38
f 4/3/39 2/2/39 65/110/39 66/111/39
f 2/67/40 64/65/40 96/112/40 65/113/40
f 22/21/41 20/19/41 74/114/41 75/115/41
f 40/39/42 38/37/42 83/116/42 84/117/42
f 58/57/43 56/55/43 92/64/43 93/118/43
f 14/13/44 12/11/44 70/105/44 71/119/44
f 32/31/45 30/29/45 79/107/45 80/120/45
f 50/49/46 48/47/46 88/109/46 89/121/46
f 6/5/47 4/3/47 66/111/47 67/122/47
f 24/23/48 22/21/48 75/115/48 76/102/48
f 42/41/49 40/39/49 84/117/49 85/123/49
f 60/59/50 58/57/50 93/118/50 94/124/50
f 16/15/51 14/13/51 71/119/51 72/125/51
f 34/33/52 32/31/52 80/120/52 81/126/52
f 52/51/53 50/49/53 89/121/53 90/127/53
f 8/7/54 6/5/54 67/122/54 68/128/54
f 26/25/55 24/23/55 76/102/55 77/101/55
f 44/43/56 42/41/56 85/123/56 86/129/56
f 62/61/57 60/59/57 94/124/57 95/130/57
f 18/17/58 16/15/58 72/125/58 73/131/58
f 36/35/59 34/33/59 81/126/59 82/132/59
f 54/53/60 52/51/60 90/127/60 91/63/60
f 10/9/61 8/7/61 68/128/61 69/104/61
f 28/27/62 26/25/62 77/101/62 78/106/62
f 46/45/63 44/43/63 86/129/63 87/108/63
f 64/65/64 62/61/64 95/130/64 96/112/64
f 20/19/65 18/17/65 73/131/65 74/114/65
f 38/37/66 36/35/66 82/132/66 83/116/66
f 91/63/67 90/127/67 97/133/67
f 78/106/68 77/101/68 97/134/68
f 92/64/69 91/63/69 97/135/69
f 79/107/70 78/106/70 97/136/70
f 66/111/71 65/110/71 97/137/71
f 93/118/72 92/64/72 97/138/72
f 80/120/73 79/107/73 97/139/73
f 67/122/74 66/111/74 97/140/74
f 94/124/75 93/118/75 97/141/75
f 81/126/76 80/120/76 97/142/76
f 68/128/77 67/122/77 97/143/77
f 95/130/78 94/124/78 97/144/78
f 82/132/79 81/126/79 97/145/79
f 69/104/80 68/128/80 97/146/80
f 96/112/81 95/130/81 97/147/81
f 83/116/82 82/132/82 97/148/82
f 70/105/83 69/104/83 97/149/83
f 65/113/84 96/112/84 97/150/84
f 84/117/85 83/116/85 97/151/85
f 71/119/86 70/105/86 97/152/86
f 85/123/87 84/117/87 97/153/87
f 72/125/88 71/119/88 97/154/88
f 86/129/89 85/123/89 97/155/89
f 73/131/90 72/125/90 97/156/90
f 87/108/91 86/129/91 97/157/91
f 74/114/92 73/131/92 97/158/92
f 88/109/93 87/108/93 97/159/93
f 75/115/94 74/114/94 97/160/94
f 89/121/95 88/109/95 97/161/95
f 76/102/96 75/115/96 97/162/96
f 90/127/97 89/121/97 97/163/97
